<svg xmlns="http://www.w3.org/2000/svg" width="32.84" height="32.846" viewBox="0 0 32.84 32.846">
  <path id="path7" d="M10.51,2.25a8.27,8.27,0,0,0-8.26,8.26V26.83A8.274,8.274,0,0,0,10.51,35.1H26.83a8.278,8.278,0,0,0,8.26-8.266V10.51a8.27,8.27,0,0,0-8.26-8.26Zm0,1.428H26.83a6.844,6.844,0,0,1,6.838,6.832V26.83a6.8,6.8,0,0,1-2.181,4.975,13.674,13.674,0,0,0-12.951-9.582,13.514,13.514,0,0,0-12.89,9.393A6.81,6.81,0,0,1,3.678,26.83V10.51A6.839,6.839,0,0,1,10.51,3.678Zm8.115,4.362a6.4,6.4,0,1,0,6.4,6.4A6.407,6.407,0,0,0,18.626,8.039Zm0,1.428a4.972,4.972,0,1,1-4.975,4.97A4.974,4.974,0,0,1,18.626,9.467Zm-.089,14.184A12.236,12.236,0,0,1,30.277,32.7a6.746,6.746,0,0,1-3.441.971H10.51v-.006a6.773,6.773,0,0,1-3.681-1.093A12.112,12.112,0,0,1,18.536,23.651Z" transform="translate(-2.25 -2.25)"/>
</svg>