<svg xmlns="http://www.w3.org/2000/svg" width="42.814" height="47.214" viewBox="0 0 42.814 47.214">
  <path id="Icon_simple-email" data-name="Icon simple-email" d="M44.455,21.791a24.349,24.349,0,0,1-.785,5.281,15.283,15.283,0,0,1-2.053,4.638,10.836,10.836,0,0,1-3.481,3.3,9.825,9.825,0,0,1-5.083,1.254,7.369,7.369,0,0,1-3.676-.9,6.3,6.3,0,0,1-2.484-2.546,7.874,7.874,0,0,1-6.662,3.346,6.774,6.774,0,0,1-5.815-3.127,10.238,10.238,0,0,1-1.446-3.623,15.625,15.625,0,0,1-.189-4.726,21.956,21.956,0,0,1,1.44-5.789,15.734,15.734,0,0,1,2.661-4.434,11.258,11.258,0,0,1,3.658-2.826,10.208,10.208,0,0,1,4.449-.988,13.834,13.834,0,0,1,2.661.227,10.893,10.893,0,0,1,2.065.62,11.168,11.168,0,0,1,1.711.9c.522.336,1.047.684,1.57,1.039L31.7,28.3a4.943,4.943,0,0,0,.038,1.741,2.435,2.435,0,0,0,.531,1.074,1.912,1.912,0,0,0,.861.561,3.2,3.2,0,0,0,3.027-.6,6.452,6.452,0,0,0,1.623-2.065,13.3,13.3,0,0,0,1.092-3.1,21.3,21.3,0,0,0,.478-3.865,24.7,24.7,0,0,0-.608-7.222,14.356,14.356,0,0,0-2.673-5.588,12.412,12.412,0,0,0-4.791-3.6A17.39,17.39,0,0,0,24.3,4.361a15.413,15.413,0,0,0-6.9,1.5,15.84,15.84,0,0,0-5.246,4.172,20.021,20.021,0,0,0-3.434,6.275,28.28,28.28,0,0,0-1.446,7.818,26,26,0,0,0,.738,7.978,14.409,14.409,0,0,0,2.915,5.718,12.164,12.164,0,0,0,4.939,3.434A18.945,18.945,0,0,0,22.679,42.4a23.344,23.344,0,0,0,4.473-.481c.738-.148,1.437-.325,2.1-.519a15.834,15.834,0,0,0,1.812-.649L32,44.957a10.382,10.382,0,0,1-2.027,1,19.51,19.51,0,0,1-2.4.693,23.376,23.376,0,0,1-5,.561,26.241,26.241,0,0,1-9.122-1.469A16.79,16.79,0,0,1,6.8,41.373a18.363,18.363,0,0,1-3.992-7.219A30.8,30.8,0,0,1,1.7,24.131a30.565,30.565,0,0,1,1.918-9.618,23.8,23.8,0,0,1,4.62-7.641,21.054,21.054,0,0,1,7.048-5.042A22.068,22.068,0,0,1,24.411,0a23.039,23.039,0,0,1,8.845,1.584A17.2,17.2,0,0,1,39.64,6.039a18.283,18.283,0,0,1,3.788,6.883A26.319,26.319,0,0,1,44.455,21.791ZM19.118,24.683a10.037,10.037,0,0,0,.519,4.977A2.669,2.669,0,0,0,22.2,31.341a2.835,2.835,0,0,0,.879-.162,3.136,3.136,0,0,0,1.012-.608,5.4,5.4,0,0,0,1.027-1.239,9.509,9.509,0,0,0,.944-2.095l1.009-11.554a6.028,6.028,0,0,0-1.57-.207,5.427,5.427,0,0,0-2.611.6,5.169,5.169,0,0,0-1.85,1.758,10.326,10.326,0,0,0-1.227,2.891,24.527,24.527,0,0,0-.7,3.953Z" transform="translate(-1.67)" fill="#182436"/>
</svg>