<svg xmlns="http://www.w3.org/2000/svg" width="34.937" height="32.553" viewBox="0 0 34.937 32.553">
  <path id="Path_14" data-name="Path 14" d="M20.107,35.276l-.638.279-.638-.279C10.625,30.245,2,18.8,2,12.436A9.535,9.535,0,0,1,19.468,7.249a9.535,9.535,0,0,1,17.468,5.187C36.937,18.8,28.312,30.245,20.107,35.276Zm7.3-30.693A7.945,7.945,0,0,0,20.79,8.124L19.468,10.1l-1.322-1.98A7.946,7.946,0,0,0,3.588,12.436c0,5.609,8.126,16.522,15.88,21.373,7.754-4.851,15.88-15.763,15.88-21.365A7.941,7.941,0,0,0,27.408,4.583Z" transform="translate(-2 -3.002)" fill="#131212" fill-rule="evenodd"/>
</svg>