<svg xmlns="http://www.w3.org/2000/svg" width="47.214" height="47.214" viewBox="0 0 47.214 47.214">
  <path id="Icon_awesome-phone" data-name="Icon awesome-phone" d="M45.5,2.269,35.908.056a2.227,2.227,0,0,0-2.536,1.282L28.946,11.665a2.207,2.207,0,0,0,.636,2.582l5.588,4.574a34.176,34.176,0,0,1-16.34,16.34l-4.574-5.588a2.211,2.211,0,0,0-2.582-.636L1.347,33.363A2.24,2.24,0,0,0,.056,35.908L2.269,45.5a2.212,2.212,0,0,0,2.158,1.715A42.782,42.782,0,0,0,47.214,4.426,2.21,2.21,0,0,0,45.5,2.269Z" transform="translate(0.001 0.001)" fill="#182436"/>
</svg>