<svg xmlns="http://www.w3.org/2000/svg" width="23" height="23" viewBox="0 0 23 23">
  <g id="Icon_ionic-ios-close-circle-outline" data-name="Icon ionic-ios-close-circle-outline" transform="translate(-3.375 -3.375)">
    <path id="Path_30" data-name="Path 30" d="M20.958,19.707l-2.914-2.914,2.914-2.914a.884.884,0,1,0-1.25-1.25l-2.914,2.914L13.881,12.63a.884.884,0,1,0-1.25,1.25l2.914,2.914-2.914,2.914a.854.854,0,0,0,0,1.25.878.878,0,0,0,1.25,0l2.914-2.914,2.914,2.914a.888.888,0,0,0,1.25,0A.878.878,0,0,0,20.958,19.707Z" transform="translate(-1.92 -1.919)" fill="#f17171"/>
    <path id="Path_31" data-name="Path 31" d="M14.875,4.923A9.948,9.948,0,1,1,7.837,7.837a9.886,9.886,0,0,1,7.038-2.914m0-1.548a11.5,11.5,0,1,0,11.5,11.5,11.5,11.5,0,0,0-11.5-11.5Z" fill="#f17171"/>
  </g>
</svg>